inDegrees=yes
name=ik_lifting_orientations
DataType=double
version=3
OpenSimVersion=4.5-2024-01-10-34fd6af
endheader
time	pelvis_tilt	pelvis_list	pelvis_rotation	pelvis_tx	pelvis_ty	pelvis_tz	hip_flexion_r	hip_adduction_r	hip_rotation_r	knee_angle_r	knee_angle_r_beta	ankle_angle_r	subtalar_angle_r	mtp_angle_r	hip_flexion_l	hip_adduction_l	hip_rotation_l	knee_angle_l	knee_angle_l_beta	ankle_angle_l	subtalar_angle_l	mtp_angle_l	lumbar_extension	lumbar_bending	lumbar_rotation	arm_flex_r	arm_add_r	arm_rot_r	elbow_flex_r	pro_sup_r	wrist_flex_r	wrist_dev_r	arm_flex_l	arm_add_l	arm_rot_l	elbow_flex_l	pro_sup_l	wrist_flex_l	wrist_dev_l
1.61	3.693890761565571	2.204298172741373	-118.3804664830032	0	0.9399999998679526	0	44.99689634750379	-10.05468471276436	0	59.99851629956205	1.047171655738842	-5.011562722576442	0	0	44.99689634750379	-10.05468471276436	0	59.99851629956205	1.047171655738842	-5.011562722576442	0	0	-19.24418988090746	5.510086314195568	25.05593737277645	19.61811211736585	-30.31552325822356	23.50863860363603	104.6113117654728	1.128224413281726	0	0	0	-12.45326748133328	0	88.89401849146385	1.128224413281726	0	0
1.62	3.32292470754924	1.95418980630847	-118.531344897215	0	0.9399999998679526	0	44.99691775252253	-10.05378533415926	0	59.99852746580594	1.047171850626563	-5.011335496051324	0	0	44.99691775252253	-10.05378533415926	0	59.99852746580594	1.047171850626563	-5.011335496051324	0	0	-17.80258031561972	5.535900161029886	22.73292870031963	19.36454183242788	-30.04828786204157	26.1499760902001	108.8159482966721	1.122254389427989	0	0	0	-12.46398098768385	0	88.89986987246144	1.122254389427989	0	0
1.63	2.963481160636619	1.720801437017599	-118.687674422924	0	0.9399999998679526	0	44.99693879080387	-10.05291050712207	0	59.99853844485428	1.047172042247105	-5.011115237920405	0	0	44.99693879080387	-10.05291050712207	0	59.99853844485428	1.047172042247105	-5.011115237920405	0	0	-16.3419418176782	5.362169244806216	20.98348916427677	18.62073217523552	-29.88736255363219	28.12805401831637	113.4089497094581	1.116376286392261	0	0	0	-12.47454217288549	0	88.90563115958615	1.116376286392261	0	0
1.64	2.519103103479978	1.51369580308809	-118.2103104237154	0	0.9399999998679526	0	44.99696388410029	-10.05187171395701	0	59.99855149843587	1.047172270075083	-5.010854226043319	0	0	44.99696388410029	-10.05187171395701	0	59.99855149843587	1.047172270075083	-5.010854226043319	0	0	-14.93496794518354	5.457928919227838	18.73891483038413	17.61895221943918	-29.85574707813735	30.02391665132198	118.4004734258473	1.109362330869645	0	0	0	-12.48714647054778	0	88.91250572636581	1.109362330869645	0	0
1.65	2.090514436455012	1.263629090766907	-117.4236880883275	0	0.9399999998679526	0	44.99698955264576	-10.05083030710739	0	59.99856490688314	1.047172504096636	-5.010594211230644	0	0	44.99698955264576	-10.05083030710739	0	59.99856490688314	1.047172504096636	-5.010594211230644	0	0	-13.52016922862872	5.549042862791311	15.71939206534081	16.98256995234103	-29.51358686957029	32.37524119894384	123.0902890059885	1.102161140500592	0	0	0	-12.50012053205823	0	88.91956380755992	1.102161140500592	0	0
1.66	1.699999987836412	1.053972362111225	-116.447859884911	0	0.9399999998679526	0	44.99701379434818	-10.04985236846082	0	59.99857754056548	1.047172724595989	-5.010350549381671	0	0	44.99701379434818	-10.04985236846082	0	59.99857754056548	1.047172724595989	-5.010350549381671	0	0	-12.01840686905235	5.528873667661284	12.69074989640925	16.29871287711075	-29.21818899489717	34.75073099232186	127.9394792557579	1.095354529326596	0	0	0	-12.51239018811209	0	88.92623515111826	1.095354529326596	0	0
1.67	1.346731253356265	0.824702975796976	-114.8137293727124	0	0.9399999998679526	0	44.99701472700448	-10.04979823136821	0	59.99857792506833	1.04717273130683	-5.010335902370763	0	0	44.99701472700448	-10.04979823136821	0	59.99857792506833	1.04717273130683	-5.010335902370763	0	0	-10.60425373528889	5.476627525884993	9.284871117192473	15.38987394611514	-29.71701310880638	36.7096422197666	131.0394276875242	1.095116145359342	0	0	0	-12.512789140058	0	88.92646879724101	1.095116145359342	0	0
1.68	1.020766512324531	0.6894032238413016	-111.5689516227174	0	0.9399999998679526	0	44.99701872917682	-10.04956673983089	0	59.99857957243884	1.047172760058869	-5.010273398883853	0	0	44.99701872917682	-10.04956673983089	0	59.99857957243884	1.047172760058869	-5.010273398883853	0	0	-9.040180480848656	5.690019287405162	4.150374766774462	14.65377161033386	-30.46759624898159	38.8488683626768	134.2586481048854	1.094093432854402	0	0	0	-12.5144999328867	0	88.92747118348773	1.094093432854402	0	0
1.69	0.6453997187274504	0.4290701886060916	-112.0729810188188	0	0.9399999998679526	0	44.99703879507889	-10.04876278981746	0	59.99858999889424	1.047172942034845	-5.010073676463239	0	0	44.99703879507889	-10.04876278981746	0	59.99858999889424	1.047172942034845	-5.010073676463239	0	0	-8.062097139375652	5.185874330674563	2.660492917149179	14.12991502124254	-31.25613214658326	40.83870072404785	140.6289307572989	1.088454927720308	0	0	0	-12.52466832057153	0	88.93299763481312	1.088454927720308	0	0
1.7	0.3130136896254412	0.2154778885464403	-112.593821384504	0	0.9399999998679526	0	44.99704711812642	-10.04839935121807	0	59.99859416058231	1.047173014670005	-5.009981137888805	0	0	44.99704711812642	-10.04839935121807	0	59.99859416058231	1.047173014670005	-5.009981137888805	0	0	-7.469761967221396	4.746218295712737	2.852105466857448	13.15788635671692	-32.0852087479868	40.23697416521075	145.5501540397797	1.086156174634012	0	0	0	-12.52876249584259	0	88.93525070413962	1.086156174634012	0	0
